# xmcd
#
# Track frame offsets: 
#        150
#        28208
#        41110
#        78065
#        96149
#        124201
#        157737
#        197864
#        236629
#
# Disc length: 3510 seconds
#
# Revision: 1
# Processed by: cddbd v1.5.2PL0 Copyright (c) Steve Scherf et al.
# Submitted via: ExactAudioCopy v0.99pb5
#
DISCID=6d0db409
DTITLE=Leszek Winder - Slaski Blues
DYEAR=2001
DGENRE=Blues
TTITLE0=01.Blues Dla Siwieckiego
TTITLE1=02.Blues Dla Okularnika
TTITLE2=03.Blues Dla Skiby
TTITLE3=04.Blues O S³onym Paluszku
TTITLE4=05.Blues O Smierci
TTITLE5=06.Michalowickie Drzewo
TTITLE6=07.Blues W Lesniczowce
TTITLE7=08.Rock me now [ bonus]
TTITLE8=09.Blues o smierci [bonus]
EXTD=
EXTT0=
EXTT1=
EXTT2=
EXTT3=
EXTT4=
EXTT5=
EXTT6=
EXTT7=
EXTT8=
PLAYORDER=
